Patient4_TMGait_0pt6_02_left_12_GRF.mot
version=1
nRows=58
nColumns=19
inDegrees=no
endheader
time	F1x	F1y	F1z	M1x	M1y	M1z	F2x	F2y	F2z	M2x	M2y	M2z	EC1x	EC1y	EC1z	EC2x	EC2y	EC2z
14.71	-11.029	5.5932	-1.5995	-2.0957	-0.60989	18.7731	-26.5105	720.0743	-56.3031	277.0896	67.0137	711.7723	-0.0592	0.0182	-0.0073	-0.0462	0.0165	0.9585
14.7226	-7.4164	4.445	-1.0274	-1.6692	-0.43478	13.2374	-27.9938	724.1835	-56.9806	278.982	68.1229	713.8543	-0.0592	0.0182	-0.0073	-0.0462	0.0165	0.9585
14.7353	-4.3977	3.5206	-0.54427	-1.3226	-0.29837	8.674	-28.7077	729.7847	-57.1918	281.4251	68.4824	716.5041	-0.0592	0.0182	-0.0073	-0.0462	0.0165	0.9585
14.7479	-2.119	2.8666	-0.17946	-1.0731	-0.19808	5.3009	-28.5338	736.7879	-56.857	284.3964	67.9574	719.6565	-0.0592	0.0182	-0.0073	-0.0462	0.0165	0.9585
14.7606	-0.56724	2.4663	0.069295	-0.91523	-0.13271	3.0633	-27.4818	744.8744	-55.9929	287.7974	66.5658	723.1009	-0.0592	0.0182	-0.0073	-0.0462	0.0165	0.9585
14.7732	0.35772	2.2698	0.21679	-0.83086	-0.10188	1.7645	-25.6275	753.4769	-54.6929	291.4267	64.4281	726.4357	-0.0592	0.0182	-0.0073	-0.0462	0.0165	0.9585
14.7859	0.81091	2.1964	0.29328	-0.79259	-0.10755	1.1283	-23.0799	761.8028	-53.0924	294.9817	61.7184	729.0632	-0.0592	0.0182	-0.0073	-0.0462	0.0165	0.9585
14.7985	0.90889	2.1682	0.31867	-0.77089	-0.14969	0.90842	-19.9574	768.9127	-51.3521	298.0916	58.6375	730.2516	-0.0592	0.0182	-0.0073	-0.0462	0.0165	0.9585
14.8111	0.78904	2.0725	0.31774	-0.72712	-0.22316	0.8172	-16.3932	773.9122	-49.5997	300.3952	55.3571	729.3087	-0.0592	0.0182	-0.0073	-0.0462	0.0165	0.9585
14.8238	0.52041	1.8097	0.30622	-0.62384	-0.32389	0.65374	-12.4948	776.1232	-47.9333	301.613	52.0063	725.725	-0.0592	0.0182	-0.0073	-0.0462	0.0165	0.9585
14.8364	0.19708	1.2607	0.29639	-0.42019	-0.43534	0.19724	-8.3648	775.2235	-46.3956	301.6027	48.6608	719.2998	-0.0592	0.0182	-0.0073	-0.0462	0.0165	0.9585
14.8491	-0.14721	0.34266	0.29136	-0.084816	-0.54724	-0.66874	-4.0954	771.2241	-45.0354	300.3536	45.4007	710.1169	-0.0592	0.0182	-0.0073	-0.0462	0.0165	0.9585
14.8617	-0.43896	-1.008	0.29145	0.40139	-0.63882	-2.0412	0.2311	764.3889	-43.9204	297.959	42.3228	698.472	-0.0592	0.0182	-0.0073	-0.0462	0.0165	0.9585
14.8744	-0.6288	-2.7728	0.2978	1.0318	-0.69093	-3.8969	4.5204	755.2402	-43.1302	294.6217	39.5355	684.8804	-0.0592	0.0182	-0.0073	-0.0462	0.0165	0.9585
14.887	-0.62948	-4.8094	0.2968	1.7561	-0.66246	-6.0868	8.7012	744.5835	-42.7235	290.6652	37.1231	670.0835	-0.0592	0.0182	-0.0073	-0.0462	0.0165	0.9585
14.8996	-0.33444	-6.7916	0.28441	2.4574	-0.5136	-8.2444	12.7011	733.4679	-42.7218	286.5119	35.1391	655.0446	-0.0592	0.0182	-0.0073	-0.0462	0.0165	0.9585
14.9123	0.38392	-8.1389	0.23516	2.927	-0.17661	-9.7249	16.487	723.0099	-43.1219	282.6131	33.6057	640.7654	-0.0592	0.0182	-0.0073	-0.0462	0.0165	0.9585
14.9249	1.6743	-7.9562	0.14218	2.8446	0.4085	-9.5525	20.0129	714.2477	-43.9026	279.3801	32.5263	628.1838	-0.0592	0.0182	-0.0073	-0.0462	0.0165	0.9585
14.9376	3.6438	-4.9614	-0.018835	1.7497	1.3044	-6.3165	23.2578	707.9258	-45.0277	277.1044	31.8754	617.9593	-0.0592	0.0182	-0.0073	-0.0462	0.0165	0.9585
14.9502	6.3619	2.4501	-0.24407	-0.94126	2.53	1.7371	26.189	704.3941	-46.4462	275.9126	31.6116	610.4293	-0.0592	0.0182	-0.0073	-0.0462	0.0165	0.9585
14.9629	9.7336	16.1271	-0.5396	-5.8982	4.055	16.6472	28.7887	703.528	-48.0582	275.738	31.6446	605.5328	-0.0592	0.0182	-0.0073	-0.0462	0.0165	0.9585
14.9755	13.4499	37.8371	-0.87571	-13.7633	5.7339	40.3518	31.0188	704.691	-49.7289	276.3093	31.8637	602.7841	-0.0592	0.0182	-0.0073	-0.0462	0.0165	0.9585
14.9881	16.8223	68.7906	-1.2082	-24.9758	7.2671	74.2066	32.8307	706.7398	-51.2602	277.1562	32.1103	601.2781	-0.0592	0.0182	-0.0073	-0.0462	0.0165	0.9585
15.0008	18.6819	108.8045	-1.4279	-39.4695	8.1105	118.0531	34.168	708.0246	-52.4337	277.6164	32.2176	599.6671	-0.0592	0.0182	-0.0073	-0.0462	0.0165	0.9585
15.0134	17.4073	155.3327	-1.3752	-56.3224	7.5065	169.1743	34.9712	706.5194	-53.007	276.8941	32.0029	596.266	-0.0592	0.0182	-0.0073	-0.0462	0.0165	0.9585
15.0261	11.9718	203.1579	-0.77031	-73.6319	4.79	221.9204	35.277	700.1778	-52.7831	274.2074	31.3012	589.3059	-0.0592	0.0182	-0.0073	-0.0462	0.0165	0.9585
15.0387	3.6906	245.5976	0.99329	-88.9483	-0.21497	268.9057	35.1883	687.5133	-51.6169	269.0079	29.9679	577.4501	-0.0592	0.0182	-0.0073	-0.0462	0.0165	0.9585
15.0514	-5.1006	277.9641	4.1455	-100.5602	-6.8626	304.7313	34.9285	667.9392	-49.5432	261.1011	27.9729	560.0574	-0.0592	0.0182	-0.0073	-0.0462	0.0165	0.9585
15.064	-12.9286	300.0556	7.8735	-108.4223	-13.7577	328.907	34.7226	641.8378	-46.7678	250.6496	25.4093	537.3139	-0.0592	0.0182	-0.0073	-0.0462	0.0165	0.9585
15.0766	-19.2529	315.0122	11.7199	-113.698	-20.1918	344.8468	34.7749	610.1164	-43.6591	238.0099	22.5112	509.8604	-0.0592	0.0182	-0.0073	-0.0462	0.0165	0.9585
15.0893	-23.9661	326.9101	15.0451	-117.904	-25.4693	357.0074	35.1323	573.8885	-40.45	223.6153	19.4559	478.6019	-0.0592	0.0182	-0.0073	-0.0462	0.0165	0.9585
15.1019	-27.3112	339.1217	17.7668	-122.2675	-29.5713	369.1717	35.6845	534.1118	-37.193	207.8508	16.3414	444.3697	-0.0592	0.0182	-0.0073	-0.0462	0.0165	0.9585
15.1146	-29.4644	353.7113	19.6889	-127.5399	-32.3774	383.5	36.1771	491.4973	-33.788	191.0085	13.1952	407.8303	-0.0592	0.0182	-0.0073	-0.0462	0.0165	0.9585
15.1272	-30.6692	371.8559	21.1077	-134.1066	-34.2705	401.2558	36.2792	446.4949	-30.1646	173.2788	10.0947	369.4423	-0.0592	0.0182	-0.0073	-0.0462	0.0165	0.9585
15.1399	-31.0036	394.2331	22.1853	-142.1763	-35.4731	423.0798	35.6605	399.4579	-26.343	154.8112	7.1821	329.5675	-0.0592	0.0182	-0.0073	-0.0462	0.0165	0.9585
15.1525	-30.6147	421.1826	23.4519	-151.8144	-36.5813	449.3241	34.0089	350.8898	-22.4748	135.8016	4.6902	288.697	-0.0592	0.0182	-0.0073	-0.0462	0.0165	0.9585
15.1651	-29.7048	452.5629	25.2342	-162.9368	-38.0113	479.7543	31.1558	301.6054	-18.7498	116.5664	2.8245	247.5249	-0.0592	0.0182	-0.0073	-0.0462	0.0165	0.9585
15.1778	-28.5672	487.898	27.978	-175.342	-40.3159	513.8557	27.101	252.8379	-15.3532	97.5777	1.7146	207.0854	-0.0592	0.0182	-0.0073	-0.0462	0.0165	0.9585
15.1904	-27.38	526.6697	31.7363	-188.8435	-43.6155	551.0412	22.1558	206.0909	-12.392	79.4173	1.3169	168.5551	-0.0592	0.0182	-0.0073	-0.0462	0.0165	0.9585
15.2031	-26.1784	568.258	36.395	-203.2369	-47.8022	590.6154	16.7844	162.9082	-9.9045	62.6773	1.4694	133.1452	-0.0592	0.0182	-0.0073	-0.0462	0.0165	0.9585
15.2157	-24.9428	611.6537	41.4724	-218.2013	-52.3802	631.514	11.5577	124.5296	-7.8602	47.8326	1.9196	101.7772	-0.0592	0.0182	-0.0073	-0.0462	0.0165	0.9585
15.2284	-23.5643	655.2811	46.5635	-233.2099	-56.9033	672.1146	6.9063	91.6982	-6.2049	35.1598	2.4485	75.0089	-0.0592	0.0182	-0.0073	-0.0462	0.0165	0.9585
15.241	-22.0227	697.1436	51.2614	-247.5801	-60.9416	710.4247	3.1138	64.6016	-4.8565	24.724	2.8751	52.9545	-0.0592	0.0182	-0.0073	-0.0462	0.0165	0.9585
15.2536	-20.2925	735.1208	55.3838	-260.5692	-64.2859	744.3525	0.2913	43.0149	-3.7502	16.431	3.1032	35.4091	-0.0592	0.0182	-0.0073	-0.0462	0.0165	0.9585
15.2663	-18.4085	767.3632	58.7953	-271.5219	-66.7967	772.166	-1.5754	26.4817	-2.8172	10.0954	3.0783	21.9906	-0.0592	0.0182	-0.0073	-0.0462	0.0165	0.9585
15.2789	-16.3965	792.5063	61.4573	-279.9499	-68.4412	792.6365	-2.5431	14.4249	-2.0198	5.4873	2.8004	12.204	-0.0592	0.0182	-0.0073	-0.0462	0.0165	0.9585
15.2916	-14.3459	809.829	63.3549	-285.5915	-69.2307	805.2142	-2.7858	6.2473	-1.3503	2.3679	2.3382	5.5701	-0.0592	0.0182	-0.0073	-0.0462	0.0165	0.9585
15.3042	-12.2888	819.2733	64.4967	-288.4179	-69.1929	810.0042	-2.5566	1.2591	-0.83298	0.47025	1.8205	1.5158	-0.0592	0.0182	-0.0073	-0.0462	0.0165	0.9585
15.3169	-10.2718	821.3512	64.939	-288.5989	-68.4073	807.6698	-2.1189	-1.3049	-0.47113	-0.50142	1.3537	-0.55529	-0.0592	0.0182	-0.0073	-0.0462	0.0165	0.9585
15.3295	-8.335	817.0567	64.767	-286.4713	-66.9887	799.296	-1.6104	-2.2231	-0.24637	-0.84166	0.97973	-1.292	-0.0592	0.0182	-0.0073	-0.0462	0.0165	0.9585
15.3421	-6.5226	807.7024	64.1259	-282.4839	-65.1094	786.2413	-1.1449	-2.1248	-0.13221	-0.79267	0.71496	-1.202	-0.0592	0.0182	-0.0073	-0.0462	0.0165	0.9585
15.3548	-4.8731	794.7843	63.1756	-277.1505	-62.9597	770.0064	-0.76043	-1.5052	-0.098065	-0.54226	0.54643	-0.70296	-0.0592	0.0182	-0.0073	-0.0462	0.0165	0.9585
15.3674	-3.4231	779.7842	62.1248	-270.987	-60.7699	752.0194	-0.47928	-0.68884	-0.11516	-0.21568	0.4561	-0.049097	-0.0592	0.0182	-0.0073	-0.0462	0.0165	0.9585
15.3801	-2.1658	764.0917	61.1249	-264.487	-58.7007	733.5819	-0.2975	0.13075	-0.16026	0.11204	0.42246	0.61149	-0.0592	0.0182	-0.0073	-0.0462	0.0165	0.9585
15.3927	-1.0291	748.9387	60.3002	-258.1007	-56.8571	715.8011	-0.19452	0.84306	-0.21543	0.39955	0.42388	1.1878	-0.0592	0.0182	-0.0073	-0.0462	0.0165	0.9585
15.4054	0.065535	735.3495	59.6866	-252.2139	-55.252	699.5713	-0.1671	1.4196	-0.26849	0.6346	0.44919	1.6773	-0.0592	0.0182	-0.0073	-0.0462	0.0165	0.9585
15.418	1.196	724.0628	59.3054	-247.1188	-53.8877	685.5063	-0.17482	1.8483	-0.31542	0.81344	0.48567	2.0542	-0.0592	0.0182	-0.0073	-0.0462	0.0165	0.9585
15.4306	2.4355	715.5574	59.1072	-243.017	-52.704	673.9769	-0.22823	2.1625	-0.35361	0.94458	0.53495	2.3578	-0.0592	0.0182	-0.0073	-0.0462	0.0165	0.9585
